<?xml version="1.0" standalone="no"?>
<!DOCTYPE svg PUBLIC "-//W3C//DTD SVG 20010904//EN"
 "http://www.w3.org/TR/2001/REC-SVG-20010904/DTD/svg10.dtd">
<svg version="1.0" xmlns="http://www.w3.org/2000/svg"
 width="418.000000pt" height="345.000000pt" viewBox="0 0 418.000000 345.000000"
 preserveAspectRatio="xMidYMid meet">

<g transform="translate(0.000000,345.000000) scale(0.100000,-0.100000)"
fill="#000000" stroke="none">
<path d="M2365 2691 c-138 -34 -226 -159 -228 -326 -1 -148 41 -226 156 -284
60 -31 77 -35 172 -39 160 -7 225 24 276 132 45 96 44 98 -63 110 -46 5 -47 5
-58 -29 -15 -46 -72 -95 -113 -96 -105 -3 -170 20 -202 73 -31 51 -28 186 5
252 33 65 66 88 135 94 104 9 178 -38 192 -120 7 -44 6 -44 86 -52 l57 -6 0
50 c0 89 -44 161 -124 202 -75 38 -215 57 -291 39z"/>
<path d="M1676 2674 c-54 -7 -100 -15 -101 -16 -1 -2 -30 -133 -64 -293 -35
-159 -66 -305 -71 -323 -8 -32 -8 -33 18 -28 15 2 48 7 73 11 l47 6 12 64 c7
36 13 65 14 66 14 8 274 34 282 28 5 -5 21 -31 34 -59 25 -54 26 -55 117 -44
l52 7 -150 298 c-82 165 -152 298 -157 298 -4 -1 -51 -7 -106 -15z m90 -235
c36 -72 64 -133 62 -135 -6 -5 -188 -27 -193 -23 -4 5 56 289 61 289 2 0 33
-59 70 -131z"/>
<path d="M2987 2583 c-3 -5 -49 -132 -102 -283 -54 -151 -99 -279 -102 -285
-2 -6 22 -19 54 -29 32 -10 63 -20 68 -23 6 -2 21 27 34 65 23 65 27 69 82
100 32 18 62 32 67 32 5 0 24 -60 42 -132 18 -73 36 -140 41 -148 10 -21 159
-74 159 -57 0 7 -25 102 -55 211 -30 110 -54 200 -52 201 1 1 56 30 122 65 66
34 135 72 154 83 l34 20 -74 28 c-41 15 -81 28 -90 28 -9 1 -87 -40 -173 -90
-86 -50 -159 -89 -161 -87 -3 2 16 62 41 132 25 71 42 132 37 136 -8 8 -101
40 -114 40 -4 0 -10 -3 -12 -7z"/>
<path d="M882 2475 c-96 -35 -175 -65 -177 -67 -4 -4 200 -576 208 -584 4 -4
340 116 373 134 36 19 83 80 89 115 10 50 -12 116 -50 154 -28 28 -40 33 -79
33 l-47 0 33 41 c27 34 33 49 32 88 -1 96 -58 151 -154 150 -42 0 -97 -16
-228 -64z m227 -81 c27 -34 27 -78 1 -102 -26 -24 -179 -77 -189 -66 -9 11
-53 126 -49 129 12 9 178 64 195 64 12 1 31 -11 42 -25z m85 -226 c15 -13 29
-37 32 -54 9 -47 -25 -76 -129 -113 -80 -28 -88 -29 -94 -13 -3 9 -14 39 -25
65 -10 26 -18 54 -18 61 0 12 157 74 192 75 9 1 28 -9 42 -21z"/>
<path d="M836 1563 c-13 -46 -88 -544 -83 -550 7 -6 408 -76 412 -71 1 2 5 14
8 28 l6 26 -174 28 c-140 23 -175 32 -175 44 0 48 26 185 36 189 6 2 78 -7
159 -21 81 -14 152 -23 157 -20 4 3 8 16 8 28 0 23 -6 25 -150 47 -82 12 -154
26 -160 29 -8 5 -8 29 1 88 7 45 15 86 19 92 5 8 59 2 178 -18 l171 -29 6 25
c3 13 4 26 2 29 -3 3 -391 71 -414 73 -1 0 -4 -8 -7 -17z"/>
<path d="M2993 1521 c-56 -9 -104 -19 -106 -22 -4 -4 82 -561 87 -567 8 -8
278 43 319 61 55 23 113 85 127 136 5 20 10 71 10 113 0 130 -53 234 -143 277
-54 26 -147 27 -294 2z m267 -60 c54 -26 93 -111 98 -215 9 -165 -41 -207
-280 -241 -37 -6 -48 -4 -48 6 0 8 -16 111 -35 229 -19 118 -33 215 -32 216 1
1 45 8 97 17 104 17 147 14 200 -12z"/>
<path d="M1820 1170 l0 -290 35 0 35 0 1 263 c0 171 4 257 10 247 5 -8 73
-126 150 -262 l141 -248 59 0 59 0 0 290 0 290 -28 0 -29 0 -6 -152 c-4 -83
-7 -201 -7 -262 l0 -111 -53 96 c-28 53 -95 171 -147 263 l-95 166 -62 0 -63
0 0 -290z"/>
</g>
</svg>
