<svg id="visual" viewBox="0 0 1920 1080" width="1920" height="1080" xmlns="http://www.w3.org/2000/svg" xmlns:xlink="http://www.w3.org/1999/xlink" version="1.1"><rect x="0" y="0" width="1920" height="1080" fill="#001829"></rect><g fill="none" stroke="#297EA6" stroke-width="4"><path d="M0 -283.1L63.6 -87.5L269.3 -87.5L102.9 33.4L166.4 229.1L0 108.2L-166.4 229.1L-102.9 33.4L-269.3 -87.5L-63.6 -87.5Z" transform="translate(209 208)"></path><path d="M0 -159.5L35.8 -49.3L151.7 -49.3L57.9 18.8L93.8 129L0 60.9L-93.8 129L-57.9 18.8L-151.7 -49.3L-35.8 -49.3Z" transform="translate(851 296)"></path><path d="M0 -220.9L49.6 -68.2L210 -68.2L80.2 26.1L129.8 178.7L0 84.4L-129.8 178.7L-80.2 26.1L-210 -68.2L-49.6 -68.2Z" transform="translate(1890 244)"></path><path d="M0 -259.6L58.3 -80.2L246.8 -80.2L94.3 30.6L152.6 210L0 99.1L-152.6 210L-94.3 30.6L-246.8 -80.2L-58.3 -80.2Z" transform="translate(1672 989)"></path></g></svg>