<svg width="486" height="550" viewBox="0 0 486 550" fill="none" xmlns="http://www.w3.org/2000/svg">
<path d="M84 241V219C58.6667 220 13.5 214.6 35.5 185" stroke="white" stroke-width="20" stroke-linecap="round" stroke-linejoin="round"/>
<path d="M39.5 182L207 34.5C223.667 16.5 266.3 -8.7 303.5 34.5" stroke="white" stroke-width="20" stroke-linecap="round" stroke-linejoin="round"/>
<path d="M308 39.5L472 185C479.167 198.167 479.9 223.2 425.5 218" stroke="white" stroke-width="20" stroke-linecap="round" stroke-linejoin="round"/>
<path d="M423.5 220V364C424 376.5 418.5 400 392.5 394" stroke="white" stroke-width="20" stroke-linecap="round" stroke-linejoin="round"/>
<path d="M5.5 375C26.3333 324 95.8 237.3 207 298.5C191.8 398.5 66.3333 391.167 5.5 375Z" fill="#299640" stroke="#299640" stroke-width="10" stroke-linecap="round" stroke-linejoin="round"/>
<path d="M162.5 158.5C158.5 197.833 174.5 278.8 270.5 288C303.7 206.4 212.333 167.667 162.5 158.5Z" fill="#3EB83C" stroke="#3EB83C" stroke-width="10" stroke-linecap="round" stroke-linejoin="round"/>
<path d="M291 288C315.833 286 364.6 265.6 361 200C305 183.6 291 251.833 291 288Z" fill="#7ECB29" stroke="#7ECB29" stroke-width="10" stroke-linecap="round" stroke-linejoin="round"/>
<path d="M199.5 401.5C198 370.667 209.9 310.3 269.5 315.5C296.7 358.7 234.167 390.833 199.5 401.5Z" fill="#3EB83C" stroke="#3EB83C" stroke-width="10" stroke-linecap="round" stroke-linejoin="round"/>
<path d="M134.102 527H122.188V469.891H154.922V479.812H134.102V494.539H153.477V504.422H134.102V527ZM201.055 527L196.914 513.406H176.094L171.953 527H158.906L179.062 469.656H193.867L214.102 527H201.055ZM194.023 503.25L189.883 489.969C189.622 489.083 189.271 487.951 188.828 486.57C188.411 485.164 187.982 483.745 187.539 482.312C187.122 480.854 186.784 479.591 186.523 478.523C186.263 479.591 185.898 480.919 185.43 482.508C184.987 484.07 184.557 485.555 184.141 486.961C183.724 488.367 183.424 489.37 183.242 489.969L179.141 503.25H194.023Z" fill="#2A9640"/>
<path d="M243.008 494.93H265.664V524.539C262.669 525.529 259.557 526.323 256.328 526.922C253.099 527.495 249.44 527.781 245.352 527.781C239.674 527.781 234.857 526.661 230.898 524.422C226.94 522.182 223.932 518.875 221.875 514.5C219.818 510.125 218.789 504.747 218.789 498.367C218.789 492.378 219.935 487.195 222.227 482.82C224.544 478.445 227.917 475.06 232.344 472.664C236.797 470.268 242.227 469.07 248.633 469.07C251.654 469.07 254.635 469.396 257.578 470.047C260.521 470.698 263.19 471.544 265.586 472.586L261.562 482.273C259.818 481.388 257.826 480.646 255.586 480.047C253.346 479.448 251.003 479.148 248.555 479.148C245.039 479.148 241.979 479.956 239.375 481.57C236.797 483.185 234.792 485.451 233.359 488.367C231.953 491.258 231.25 494.669 231.25 498.602C231.25 502.326 231.758 505.633 232.773 508.523C233.789 511.388 235.391 513.641 237.578 515.281C239.766 516.896 242.617 517.703 246.133 517.703C247.852 517.703 249.297 517.625 250.469 517.469C251.667 517.286 252.786 517.104 253.828 516.922V505.008H243.008V494.93ZM295.938 469.891C301.12 469.891 305.391 470.516 308.75 471.766C312.135 473.016 314.648 474.904 316.289 477.43C317.93 479.956 318.75 483.146 318.75 487C318.75 489.604 318.255 491.883 317.266 493.836C316.276 495.789 314.974 497.443 313.359 498.797C311.745 500.151 310 501.258 308.125 502.117L324.922 527H311.484L297.852 505.086H291.406V527H279.297V469.891H295.938ZM295.078 479.812H291.406V495.242H295.312C299.323 495.242 302.188 494.578 303.906 493.25C305.651 491.896 306.523 489.917 306.523 487.312C306.523 484.604 305.586 482.677 303.711 481.531C301.862 480.385 298.984 479.812 295.078 479.812ZM383.945 498.367C383.945 502.768 383.398 506.779 382.305 510.398C381.211 513.992 379.544 517.091 377.305 519.695C375.091 522.299 372.279 524.305 368.867 525.711C365.456 527.091 361.419 527.781 356.758 527.781C352.096 527.781 348.06 527.091 344.648 525.711C341.237 524.305 338.411 522.299 336.172 519.695C333.958 517.091 332.305 513.979 331.211 510.359C330.117 506.74 329.57 502.716 329.57 498.289C329.57 492.378 330.534 487.234 332.461 482.859C334.414 478.458 337.409 475.047 341.445 472.625C345.482 470.203 350.612 468.992 356.836 468.992C363.034 468.992 368.125 470.203 372.109 472.625C376.12 475.047 379.089 478.458 381.016 482.859C382.969 487.26 383.945 492.43 383.945 498.367ZM342.266 498.367C342.266 502.352 342.76 505.789 343.75 508.68C344.766 511.544 346.341 513.758 348.477 515.32C350.612 516.857 353.372 517.625 356.758 517.625C360.195 517.625 362.982 516.857 365.117 515.32C367.253 513.758 368.802 511.544 369.766 508.68C370.755 505.789 371.25 502.352 371.25 498.367C371.25 492.378 370.13 487.664 367.891 484.227C365.651 480.789 361.966 479.07 356.836 479.07C353.424 479.07 350.638 479.852 348.477 481.414C346.341 482.951 344.766 485.164 343.75 488.055C342.76 490.919 342.266 494.357 342.266 498.367Z" fill="#7ECB29"/>
</svg>
