<?xml version="1.0" encoding="UTF-8"?>
<!DOCTYPE svg PUBLIC "-//W3C//DTD SVG 1.0//EN" "http://www.w3.org/TR/2001/REC-SVG-20010904/DTD/svg10.dtd">
<svg
	xmlns="http://www.w3.org/2000/svg"
	width="450" height="815" viewBox="0 0 450 815" overflow="visible"
	xml:space="preserve">
	<path fill="#0F0F0F" d="M450,455l-196-14l42,374H154l42-374L0,455       v-93l177,21c-32-50-85-136-85-218C92,80,147,0,225,0       c78,0,133,80,133,165c0,82-52,168-85,218l177-21V455z M172,87       c-8,10-14,23-19,38c-4,15-7,30-7,46l0,0c0,0,0,0,0,0       c0,29,8,64,26,103c15,35,35,68,53,95c17-27,37-60,53-95       c17-39,26-74,26-103c0-0,0-0-0-0c-0-15-2-31-7-46       c-4-14-11-27-19-38c-10-13-28-30-52-30       C200,57,182,73,172,87z"/>
</svg>
