<svg xmlns="http://www.w3.org/2000/svg" version="1.1" xmlns:xlink="http://www.w3.org/1999/xlink" xmlns:svgjs="http://svgjs.dev/svgjs" width="1920" height="1080" preserveAspectRatio="none" viewBox="0 0 1920 1080"><g mask="url(&quot;#SvgjsMask1047&quot;)" fill="none"><rect width="1920" height="1080" x="0" y="0" fill="#0e2a47"></rect><path d="M 0,314 C 38.4,389 115.2,683.2 192,689 C 268.8,694.8 307.2,315.6 384,343 C 460.8,370.4 499.2,847.6 576,826 C 652.8,804.4 691.2,281.2 768,235 C 844.8,188.8 883.2,555.8 960,595 C 1036.8,634.2 1075.2,398.6 1152,431 C 1228.8,463.4 1267.2,801.4 1344,757 C 1420.8,712.6 1459.2,191.6 1536,209 C 1612.8,226.4 1651.2,835.8 1728,844 C 1804.8,852.2 1881.6,368.8 1920,250L1920 1080L0 1080z" fill="#184a7e"></path><path d="M 0,808 C 64,732.2 192,388.2 320,429 C 448,469.8 512,1007.2 640,1012 C 768,1016.8 832,443.8 960,453 C 1088,462.2 1152,1138.4 1280,1058 C 1408,977.6 1472,151.2 1600,51 C 1728,-49.2 1856,455.8 1920,557L1920 1080L0 1080z" fill="#2264ab"></path></g><defs><mask id="SvgjsMask1047"><rect width="1920" height="1080" fill="#ffffff"></rect></mask></defs></svg>