<svg width="404" height="292" viewBox="0 0 404 292" fill="none" xmlns="http://www.w3.org/2000/svg">
<path d="M202 0C118.675 0 50.5 56.3143 50.5 125.143V166.857H25.25C18.5533 166.857 12.1308 169.055 7.39555 172.966C2.66026 176.878 0 182.183 0 187.714L0 271.143C0 276.675 2.66026 281.98 7.39555 285.891C12.1308 289.803 18.5533 292 25.25 292H75.75C82.4467 292 88.8692 289.803 93.6044 285.891C98.3397 281.98 101 276.675 101 271.143V125.143C101 78.84 145.945 41.7143 202 41.7143C258.055 41.7143 303 78.84 303 125.143V271.143C303 276.675 305.66 281.98 310.396 285.891C315.131 289.803 321.553 292 328.25 292H378.75C385.447 292 391.869 289.803 396.604 285.891C401.34 281.98 404 276.675 404 271.143V187.714C404 182.183 401.34 176.878 396.604 172.966C391.869 169.055 385.447 166.857 378.75 166.857H353.5V125.143C353.5 56.3143 285.325 0 202 0Z" fill="#332C4E"/>
</svg>
