<svg width="307" height="283" viewBox="0 0 307 283" fill="none" xmlns="http://www.w3.org/2000/svg">
<path d="M13.0725 0.366113C9.10137 1.59089 5.67636 3.97456 3.32058 7.15307C0.964787 10.3316 -0.192282 14.1302 0.026092 17.9687V264.405C0.026092 269.074 2.04746 273.551 5.6455 276.852C9.24355 280.153 14.1236 282.008 19.212 282.008H287.814C292.903 282.008 297.783 280.153 301.381 276.852C304.979 273.551 307 269.074 307 264.405V17.9687C307 13.3002 304.979 8.82292 301.381 5.52179C297.783 2.22067 292.903 0.366113 287.814 0.366113L19.212 0.366113C18.0631 0.270866 16.9073 0.270866 15.7585 0.366113C14.9918 0.323829 14.2229 0.323829 13.4562 0.366113L13.0725 0.366113ZM57.5837 35.5713C68.3278 35.5713 76.7696 43.3164 76.7696 53.1739C76.7696 63.0313 68.3278 70.7765 57.5837 70.7765C46.8396 70.7765 38.3978 63.0313 38.3978 53.1739C38.3978 43.3164 46.8396 35.5713 57.5837 35.5713ZM134.327 35.5713H249.442C260.186 35.5713 268.628 43.3164 268.628 53.1739C268.628 63.0313 260.186 70.7765 249.442 70.7765H134.327C123.583 70.7765 115.141 63.0313 115.141 53.1739C115.141 43.3164 123.583 35.5713 134.327 35.5713ZM38.3978 105.982H268.628V246.802H38.3978V105.982Z" fill="#332C4E"/>
</svg>
