<svg width="213" height="38" viewBox="0 0 213 38" fill="none" xmlns="http://www.w3.org/2000/svg">
<g clip-path="url(#clip0_108_2)">
<path d="M13.52 9.2C15.8933 9.2 17.9467 9.65334 19.68 10.56C21.4133 11.44 22.88 12.7467 24.08 14.48L21.2 17.24C20.1867 15.6933 19.04 14.5867 17.76 13.92C16.5067 13.2267 15.0133 12.88 13.28 12.88C12 12.88 10.9467 13.0533 10.12 13.4C9.29333 13.7467 8.68 14.2133 8.28 14.8C7.90667 15.36 7.72 16 7.72 16.72C7.72 17.5467 8 18.2667 8.56 18.88C9.14667 19.4933 10.2267 19.9733 11.8 20.32L17.16 21.52C19.72 22.08 21.5333 22.9333 22.6 24.08C23.6667 25.2267 24.2 26.68 24.2 28.44C24.2 30.0667 23.76 31.48 22.88 32.68C22 33.88 20.7733 34.8 19.2 35.44C17.6533 36.08 15.8267 36.4 13.72 36.4C11.8533 36.4 10.1733 36.16 8.68 35.68C7.18667 35.2 5.88 34.5467 4.76 33.72C3.64 32.8933 2.72 31.9467 2 30.88L4.96 27.92C5.52 28.8533 6.22667 29.6933 7.08 30.44C7.93333 31.16 8.92 31.72 10.04 32.12C11.1867 32.52 12.4533 32.72 13.84 32.72C15.0667 32.72 16.12 32.5733 17 32.28C17.9067 31.9867 18.5867 31.56 19.04 31C19.52 30.4133 19.76 29.72 19.76 28.92C19.76 28.1467 19.4933 27.4667 18.96 26.88C18.4533 26.2933 17.4933 25.84 16.08 25.52L10.28 24.2C8.68 23.8533 7.36 23.36 6.32 22.72C5.28 22.08 4.50667 21.3067 4 20.4C3.49333 19.4667 3.24 18.4267 3.24 17.28C3.24 15.7867 3.64 14.44 4.44 13.24C5.26667 12.0133 6.45333 11.04 8 10.32C9.54667 9.57334 11.3867 9.2 13.52 9.2Z" fill="#46A758"/>
<path d="M40.8316 23.16C40.8316 21.8267 40.4582 20.8 39.7116 20.08C38.9916 19.3333 37.9916 18.96 36.7116 18.96C35.5116 18.96 34.4849 19.24 33.6316 19.8C32.7782 20.36 32.1516 21.2667 31.7516 22.52L28.1516 21C28.6582 19.3733 29.6449 18.0667 31.1116 17.08C32.6049 16.0933 34.5249 15.6 36.8716 15.6C38.4716 15.6 39.8849 15.8667 41.1116 16.4C42.3382 16.9067 43.2982 17.68 43.9916 18.72C44.7116 19.76 45.0716 21.0933 45.0716 22.72V31.64C45.0716 32.6267 45.5649 33.12 46.5516 33.12C47.0316 33.12 47.4982 33.0533 47.9516 32.92L47.7116 35.88C47.0982 36.1733 46.3249 36.32 45.3916 36.32C44.5382 36.32 43.7649 36.1733 43.0716 35.88C42.4049 35.56 41.8716 35.0933 41.4716 34.48C41.0982 33.84 40.9116 33.0533 40.9116 32.12V31.84L41.7916 31.8C41.5516 32.84 41.0582 33.7067 40.3116 34.4C39.5649 35.0667 38.6982 35.5733 37.7116 35.92C36.7249 36.24 35.7249 36.4 34.7116 36.4C33.4582 36.4 32.3249 36.2 31.3116 35.8C30.3249 35.4 29.5382 34.8 28.9516 34C28.3916 33.1733 28.1116 32.16 28.1116 30.96C28.1116 29.4667 28.5916 28.24 29.5516 27.28C30.5382 26.32 31.9249 25.6667 33.7116 25.32L41.4716 23.8L41.4316 26.8L35.7916 27.96C34.6716 28.1733 33.8316 28.48 33.2716 28.88C32.7116 29.28 32.4316 29.8667 32.4316 30.64C32.4316 31.3867 32.7116 31.9867 33.2716 32.44C33.8582 32.8667 34.6316 33.08 35.5916 33.08C36.2582 33.08 36.8982 33 37.5116 32.84C38.1516 32.68 38.7249 32.4267 39.2316 32.08C39.7382 31.7067 40.1249 31.24 40.3916 30.68C40.6849 30.0933 40.8316 29.4 40.8316 28.6V23.16Z" fill="#46A758"/>
<path d="M57.1428 10.12V30C57.1428 30.9867 57.3961 31.7067 57.9028 32.16C58.4361 32.6133 59.1428 32.84 60.0228 32.84C60.7428 32.84 61.3695 32.7333 61.9028 32.52C62.4361 32.28 62.9295 31.96 63.3828 31.56L64.3428 34.68C63.7295 35.2133 62.9695 35.64 62.0628 35.96C61.1828 36.2533 60.1961 36.4 59.1028 36.4C57.9561 36.4 56.9028 36.2133 55.9428 35.84C54.9828 35.4667 54.2361 34.8667 53.7028 34.04C53.1695 33.1867 52.8895 32.08 52.8628 30.72V11.32L57.1428 10.12ZM64.0228 16V19.36H49.0228V16H64.0228Z" fill="#46A758"/>
<path d="M72.5359 16V36H68.2559V16H72.5359Z" fill="#46A758"/>
<path d="M86.8325 36.4C84.8325 36.4 83.0058 36.0133 81.3525 35.24C79.6992 34.4667 78.3925 33.3733 77.4325 31.96L80.3925 29.4C80.9792 30.4933 81.8192 31.3733 82.9125 32.04C84.0325 32.68 85.3658 33 86.9125 33C88.1392 33 89.1125 32.7867 89.8325 32.36C90.5525 31.9333 90.9125 31.3333 90.9125 30.56C90.9125 30.0533 90.7392 29.6133 90.3925 29.24C90.0725 28.84 89.4458 28.5333 88.5125 28.32L84.3125 27.44C82.1792 27.0133 80.6592 26.3333 79.7525 25.4C78.8458 24.44 78.3925 23.2267 78.3925 21.76C78.3925 20.6667 78.7125 19.6533 79.3525 18.72C79.9925 17.7867 80.9258 17.04 82.1525 16.48C83.4058 15.8933 84.8992 15.6 86.6325 15.6C88.6325 15.6 90.3392 15.96 91.7525 16.68C93.1658 17.3733 94.2458 18.3733 94.9925 19.68L92.0325 22.16C91.5258 21.0933 90.7792 20.3067 89.7925 19.8C88.8058 19.2667 87.7792 19 86.7125 19C85.8592 19 85.1258 19.1067 84.5125 19.32C83.8992 19.5333 83.4325 19.8267 83.1125 20.2C82.7925 20.5733 82.6325 21.0133 82.6325 21.52C82.6325 22.0533 82.8325 22.52 83.2325 22.92C83.6325 23.32 84.3525 23.6267 85.3925 23.84L89.9525 24.8C91.8725 25.1733 93.2192 25.8133 93.9925 26.72C94.7925 27.6 95.1925 28.68 95.1925 29.96C95.1925 31.24 94.8592 32.3733 94.1925 33.36C93.5258 34.32 92.5658 35.0667 91.3125 35.6C90.0592 36.1333 88.5658 36.4 86.8325 36.4Z" fill="#46A758"/>
<path d="M73.1522 1.31178C73.694 0.502161 74.9557 0.866186 74.9829 1.83996L75.0765 5.18638C75.0887 5.6214 75.3808 5.9986 75.7989 6.11924L78.9994 7.04264C79.9259 7.30995 79.9747 8.6045 79.0709 8.94071L75.8925 10.1231C75.4912 10.2723 75.2295 10.6604 75.2415 11.0883L75.3366 14.4883C75.3637 15.4583 74.1321 15.8946 73.5426 15.1237L71.5352 12.4989C71.2681 12.1496 70.8043 12.0158 70.3922 12.1691L67.2951 13.3212C66.3855 13.6596 65.5757 12.6344 66.1154 11.8278L68.007 9.00099C68.245 8.64523 68.2302 8.1774 67.9702 7.83737L65.9101 5.14362C65.3243 4.37765 66.0551 3.30802 66.9816 3.57533L70.1822 4.49873C70.6003 4.61937 71.0484 4.45574 71.2905 4.09405L73.1522 1.31178Z" fill="#0091FF"/>
<path d="M107.8 6.84C108.733 6.84 109.573 6.94666 110.32 7.16C111.093 7.34666 111.667 7.58666 112.04 7.88L111.28 11.52C110.987 11.3333 110.653 11.1867 110.28 11.08C109.907 10.9733 109.467 10.92 108.96 10.92C107.92 10.92 107.093 11.16 106.48 11.64C105.867 12.0933 105.56 12.88 105.56 14V16.76L105.8 17.84V36H100.32V13.6C100.32 12.48 100.507 11.4933 100.88 10.64C101.253 9.78666 101.773 9.08 102.44 8.52C103.107 7.96 103.893 7.54666 104.8 7.28C105.733 6.98666 106.733 6.84 107.8 6.84ZM111.88 16V20.08H96.84V16H111.88ZM117.92 13.12C116.773 13.12 115.92 12.88 115.36 12.4C114.8 11.8933 114.52 11.16 114.52 10.2C114.52 9.21333 114.8 8.48 115.36 8C115.92 7.49333 116.773 7.24 117.92 7.24C119.067 7.24 119.92 7.49333 120.48 8C121.04 8.48 121.32 9.21333 121.32 10.2C121.32 11.16 121.04 11.8933 120.48 12.4C119.92 12.88 119.067 13.12 117.92 13.12ZM120.64 16V36H115.16V16H120.64Z" fill="#0091FF"/>
<path d="M126.458 36V16H131.378L131.698 22L131.018 21.36C131.338 20.0533 131.845 18.9733 132.538 18.12C133.231 17.2667 134.071 16.64 135.058 16.24C136.071 15.8133 137.178 15.6 138.378 15.6C139.765 15.6 140.991 15.8667 142.058 16.4C143.151 16.9333 144.005 17.7467 144.618 18.84C145.258 19.9067 145.578 21.2533 145.578 22.88V36H140.098V24.44C140.098 22.7333 139.765 21.56 139.098 20.92C138.431 20.2533 137.565 19.92 136.498 19.92C135.751 19.92 135.018 20.1067 134.298 20.48C133.605 20.8267 133.031 21.4 132.578 22.2C132.151 23 131.938 24.0667 131.938 25.4V36H126.458Z" fill="#0091FF"/>
<path d="M158.784 36.4C157.13 36.4 155.65 35.9867 154.344 35.16C153.064 34.3333 152.05 33.1467 151.304 31.6C150.584 30.0533 150.224 28.2 150.224 26.04C150.224 23.8267 150.61 21.9467 151.384 20.4C152.157 18.8267 153.197 17.64 154.504 16.84C155.837 16.0133 157.33 15.6 158.984 15.6C160.744 15.6 162.197 16.1067 163.344 17.12C164.49 18.1333 165.237 19.44 165.584 21.04L165.064 21.68V7.24H170.544V36H165.624L165.264 29.92L165.944 30.24C165.757 31.4933 165.33 32.5867 164.664 33.52C163.997 34.4267 163.157 35.1333 162.144 35.64C161.13 36.1467 160.01 36.4 158.784 36.4ZM160.384 32.2C161.344 32.2 162.17 31.96 162.864 31.48C163.557 30.9733 164.09 30.24 164.464 29.28C164.864 28.32 165.064 27.1733 165.064 25.84C165.064 24.56 164.877 23.48 164.504 22.6C164.13 21.6933 163.597 21 162.904 20.52C162.21 20.04 161.397 19.8 160.464 19.8C158.97 19.8 157.797 20.3333 156.944 21.4C156.117 22.44 155.704 23.9733 155.704 26C155.704 28.0267 156.117 29.5733 156.944 30.64C157.77 31.68 158.917 32.2 160.384 32.2Z" fill="#0091FF"/>
<path d="M185.582 36.4C183.475 36.4 181.635 35.9867 180.062 35.16C178.515 34.3333 177.315 33.1467 176.462 31.6C175.609 30.0533 175.182 28.1867 175.182 26C175.182 23.8133 175.609 21.9467 176.462 20.4C177.315 18.8533 178.502 17.6667 180.022 16.84C181.569 16.0133 183.329 15.6 185.302 15.6C187.329 15.6 189.049 16.0133 190.462 16.84C191.875 17.64 192.955 18.7467 193.702 20.16C194.449 21.5467 194.822 23.1333 194.822 24.92C194.822 25.4533 194.809 25.96 194.782 26.44C194.755 26.92 194.715 27.3467 194.662 27.72H178.702V23.92H192.262L189.622 24.88C189.622 23.2 189.235 21.9067 188.462 21C187.715 20.0933 186.649 19.64 185.262 19.64C184.249 19.64 183.369 19.88 182.622 20.36C181.902 20.84 181.355 21.56 180.982 22.52C180.609 23.4533 180.422 24.64 180.422 26.08C180.422 27.4933 180.622 28.6667 181.022 29.6C181.449 30.5067 182.035 31.1867 182.782 31.64C183.555 32.0933 184.475 32.32 185.542 32.32C186.715 32.32 187.662 32.0933 188.382 31.64C189.102 31.1867 189.662 30.56 190.062 29.76L194.422 31.44C193.995 32.48 193.342 33.3733 192.462 34.12C191.609 34.8667 190.582 35.44 189.382 35.84C188.209 36.2133 186.942 36.4 185.582 36.4Z" fill="#0091FF"/>
<path d="M199.466 36V16H204.226L204.586 19.92C205.119 18.5333 205.893 17.4667 206.906 16.72C207.946 15.9733 209.239 15.6 210.786 15.6C211.239 15.6 211.653 15.64 212.026 15.72C212.399 15.8 212.706 15.9067 212.946 16.04L212.306 20.64C212.039 20.5333 211.706 20.4533 211.306 20.4C210.933 20.3467 210.439 20.32 209.826 20.32C209.026 20.32 208.253 20.52 207.506 20.92C206.759 21.2933 206.146 21.88 205.666 22.68C205.186 23.4533 204.946 24.44 204.946 25.64V36H199.466Z" fill="#0091FF"/>
</g>
<defs>
<clipPath id="clip0_108_2">
<rect width="213" height="38" fill="white"/>
</clipPath>
</defs>
</svg>
