<svg width="156" height="141" viewBox="0 0 156 141" fill="none" xmlns="http://www.w3.org/2000/svg">
<rect width="156" height="141" fill="black"/>
<g filter="url(#filter0_d_0_1)">
<path d="M69.5938 57.3125C69.5938 63.2188 67.75 67.6094 64.0625 70.4844C60.375 73.3594 55.2031 74.7969 48.5469 74.7969H34.7188V101H28.2969V39.8281H48.4531C55.1719 39.8281 60.375 41.2969 64.0625 44.2344C67.75 47.1406 69.5938 51.5 69.5938 57.3125ZM63.1719 57.3125C63.1719 53.0938 61.8438 50.0469 59.1875 48.1719C56.5312 46.2656 52.9844 45.3125 48.5469 45.3125H34.7188V69.3125H48.5469C52.9844 69.3125 56.5312 68.375 59.1875 66.5C61.8438 64.5938 63.1719 61.5312 63.1719 57.3125ZM123.547 57.3125L104.609 101H95.9844L76.9531 57.3125H84.6406L100.297 95.6094L115.859 57.3125H123.547Z" fill="#0DB10A"/>
</g>
<defs>
<filter id="filter0_d_0_1" x="24.2969" y="33.8281" width="111.25" height="77.1719" filterUnits="userSpaceOnUse" color-interpolation-filters="sRGB">
<feFlood flood-opacity="0" result="BackgroundImageFix"/>
<feColorMatrix in="SourceAlpha" type="matrix" values="0 0 0 0 0 0 0 0 0 0 0 0 0 0 0 0 0 0 127 0" result="hardAlpha"/>
<feOffset dx="4" dy="2"/>
<feGaussianBlur stdDeviation="4"/>
<feComposite in2="hardAlpha" operator="out"/>
<feColorMatrix type="matrix" values="0 0 0 0 0.0507927 0 0 0 0 0.693113 0 0 0 0 0.0376841 0 0 0 0.42 0"/>
<feBlend mode="normal" in2="BackgroundImageFix" result="effect1_dropShadow_0_1"/>
<feBlend mode="normal" in="SourceGraphic" in2="effect1_dropShadow_0_1" result="shape"/>
</filter>
</defs>
</svg>
