<svg width="387" height="306" viewBox="0 0 387 306" fill="none" xmlns="http://www.w3.org/2000/svg">
<path d="M56.0449 0.538165C21.2584 39.286 0 92.5643 0 151.762C0 210.961 20.7753 265.853 56.0449 304.601L90.8315 265.853C64.7416 236.792 48.3146 196.43 48.3146 151.224C48.3146 106.557 64.2584 67.8087 90.8315 38.7478L56.0449 0V0.538165ZM330.955 0.538165L296.169 39.286C322.258 68.3469 338.685 107.095 338.685 151.762C338.685 196.43 322.742 236.792 296.169 266.391L330.955 305.139C365.742 266.391 387 211.499 387 152.301C387 93.1025 366.225 39.8242 330.955 1.07633V0.538165ZM125.618 76.4194C108.225 95.7933 97.1124 122.702 97.1124 152.301C97.1124 181.9 108.225 210.422 125.618 229.796L158.955 191.048C150.258 181.361 145.427 167.369 145.427 152.301C145.427 137.232 150.258 125.392 158.955 115.167L125.618 76.4194ZM261.382 76.4194L228.045 115.167C236.742 124.854 241.573 137.232 241.573 152.301C241.573 167.369 236.742 181.361 228.045 191.048L261.382 229.796C278.775 210.422 289.888 181.9 289.888 152.301C289.888 122.702 278.775 95.7933 261.382 76.4194Z" fill="#332C4E"/>
</svg>
