<svg width="100" height="100" viewBox="0 0 100 100" fill="none" xmlns="http://www.w3.org/2000/svg">
<g clip-path="url(#clip0_11_2)">
<rect width="100" height="100" fill="white"/>
<path d="M100 94.5C100 97.2614 97.7614 99.5 95 99.5H89C86.2386 99.5 84 97.2614 84 94.5V20.1239C84 14.8804 76.9564 13.1728 74.5551 17.8342L54.4449 56.8717C52.5833 60.4854 47.4167 60.4853 45.5551 56.8717L25.4449 17.8342C23.0436 13.1728 16 14.8804 16 20.1239V94.5C16 97.2614 13.7614 99.5 11 99.5H5C2.23858 99.5 0 97.2614 0 94.5V4.5C0 1.73858 2.23858 -0.5 5 -0.5H95C97.7614 -0.5 100 1.73858 100 4.5V94.5Z" fill="#FF0000"/>
<circle cx="30.5" cy="65.5" r="7.5" fill="#FF0000"/>
<circle cx="69.5" cy="65.5" r="7.5" fill="#FF0000"/>
<path d="M0 0H100V100H84V12H54.5H16V100H0V0Z" fill="#FF0000"/>
</g>
<defs>
<clipPath id="clip0_11_2">
<rect width="100" height="100" fill="white"/>
</clipPath>
</defs>
</svg>
